<svg xmlns="http://www.w3.org/2000/svg" xmlns:xlink="http://www.w3.org/1999/xlink" width="1920px" height="913px">
<defs>
<linearGradient id="PSgrad_0" x1="0%" x2="0%" y1="100%" y2="0%">
  <stop offset="0%" stop-color="rgb(245,241,235)" stop-opacity="1"/>
  <stop offset="100%" stop-color="rgb(245,241,235)" stop-opacity="0.50196"/>
</linearGradient>

</defs>
<path fill-rule="evenodd" d="M1920.000,913.000 C1920.000,913.000 1920.000,190.512 1920.000,96.999 C1873.256,87.743 1817.521,109.590 1768.949,100.450 C1720.820,91.394 1678.560,49.725 1628.436,42.415 C1579.797,35.320 1524.997,62.775 1474.667,57.405 C1425.652,52.177 1379.579,13.910 1329.132,10.392 C1279.842,6.954 1227.719,38.331 1177.223,36.596 C1127.756,34.897 1078.473,-0.000 1028.000,-0.000 C977.532,-0.000 928.254,34.897 878.792,36.596 C828.300,38.331 776.181,6.953 726.895,10.390 C676.446,13.908 630.370,52.175 581.353,57.404 C531.023,62.772 476.226,35.318 427.587,42.411 C377.460,49.722 335.198,91.391 287.067,100.447 C237.247,109.821 179.877,86.977 132.416,98.126 C83.399,109.640 46.108,154.225 0.000,167.999 C0.000,201.082 0.000,913.000 0.000,913.000 L1920.000,913.000 Z"/>
<path fill="url(#PSgrad_0)" d="M1920.000,913.000 C1920.000,913.000 1920.000,190.512 1920.000,96.999 C1873.256,87.743 1817.521,109.590 1768.949,100.450 C1720.820,91.394 1678.560,49.725 1628.436,42.415 C1579.797,35.320 1524.997,62.775 1474.667,57.405 C1425.652,52.177 1379.579,13.910 1329.132,10.392 C1279.842,6.954 1227.719,38.331 1177.223,36.596 C1127.756,34.897 1078.473,-0.000 1028.000,-0.000 C977.532,-0.000 928.254,34.897 878.792,36.596 C828.300,38.331 776.181,6.953 726.895,10.390 C676.446,13.908 630.370,52.175 581.353,57.404 C531.023,62.772 476.226,35.318 427.587,42.411 C377.460,49.722 335.198,91.391 287.067,100.447 C237.247,109.821 179.877,86.977 132.416,98.126 C83.399,109.640 46.108,154.225 0.000,167.999 C0.000,201.082 0.000,913.000 0.000,913.000 L1920.000,913.000 Z"/>
</svg>